<?xml version="1.0" encoding="UTF-8" standalone="no"?>
<svg
   width="128"
   height="43"
   viewBox="0 0 128 43"
   fill="#fff"
   version="1.1"
   id="svg43"
   sodipodi:docname="CatwikiLogo.svg"
   inkscape:version="1.1.1 (3bf5ae0d25, 2021-09-20)"
   xmlns:inkscape="http://www.inkscape.org/namespaces/inkscape"
   xmlns:sodipodi="http://sodipodi.sourceforge.net/DTD/sodipodi-0.dtd"
   xmlns="http://www.w3.org/2000/svg"
   xmlns:svg="http://www.w3.org/2000/svg">
  <defs
     id="defs47" />
  <sodipodi:namedview
     id="namedview45"
     pagecolor="#ffffff"
     bordercolor="#666666"
     borderopacity="1.0"
     inkscape:pageshadow="2"
     inkscape:pageopacity="0.0"
     inkscape:pagecheckerboard="0"
     showgrid="false"
     inkscape:zoom="9.4299318"
     inkscape:cx="79.693047"
     inkscape:cy="13.096595"
     inkscape:window-width="1920"
     inkscape:window-height="1027"
     inkscape:window-x="1912"
     inkscape:window-y="-8"
     inkscape:window-maximized="1"
     inkscape:current-layer="svg43" />
  <path
     d="M120.65 25.886L119.61 29.0067L118.57 32.9596C118.57 32.9596 115.865 34.416 115.657 33.3757C115.449 32.3355 116.697 32.1274 116.697 32.1274L117.113 30.047L113.993 24.4297L120.65 25.886Z"
     fill="#fff"
     id="path31" />
  <path
     d="M120.65 25.886L119.61 29.0067L118.57 32.9596C118.57 32.9596 115.865 34.416 115.657 33.3757C115.449 32.3355 116.697 32.1274 116.697 32.1274L117.113 30.047L113.993 24.4297L120.65 25.886Z"
     fill="#fff"
     id="path33" />
  <path
     d="M102.966 24.6379L101.094 33.1679C101.094 33.1679 99.6373 34.0001 98.5971 33.584C97.5568 33.1679 99.2212 32.1276 99.2212 32.1276C99.2212 32.1276 98.5971 26.9265 95.4764 26.3023C92.3557 25.6782 102.966 24.6379 102.966 24.6379Z"
     fill="#fff"
     id="path35" />
  <path
     d="M102.966 24.6379L101.094 33.1679C101.094 33.1679 99.6373 34.0001 98.5971 33.584C97.5568 33.1679 99.2212 32.1276 99.2212 32.1276C99.2212 32.1276 98.5971 26.9265 95.4764 26.3023C92.3557 25.6782 102.966 24.6379 102.966 24.6379Z"
     fill="#fff"
     id="path37" />
  <path
     d="M90.6913 14.6517C90.6913 14.6517 94.8522 16.108 98.5971 15.2758C98.5971 15.2758 105.879 14.2356 106.503 14.0275C107.127 13.8195 114.201 13.4034 117.945 14.0275C117.945 14.0275 128.348 5.91369 122.523 2.37689C122.523 2.37689 120.026 3.62517 119.402 2.79298C119.168 2.48091 119.285 2.08107 119.522 1.70317C119.791 1.29255 120.155 0.953492 120.584 0.715303C121.013 0.477114 121.494 0.346958 121.984 0.336097C124.158 0.254703 128.054 1.03591 126.286 8.14394C125.782 10.1045 124.853 11.9304 123.566 13.4926C122.618 14.6606 121.638 16.277 122.106 17.5643C122.939 19.8529 123.147 23.3897 123.147 23.3897L126.059 27.7586C126.059 27.7586 127.724 33.1679 127.724 33.3759C127.724 33.584 125.46 34.0253 125.019 33.584C124.603 33.1679 125.643 32.3357 125.643 32.3357C125.643 32.3357 124.811 30.6713 123.355 30.2552C121.898 29.8391 117.945 28.3828 117.321 27.7586C116.697 27.1345 103.382 23.3897 99.6373 26.9265C97.5358 28.9341 95.3124 30.8101 92.9798 32.5437C92.9798 32.5437 91.9396 34.0001 90.6913 34.0001C89.443 34.0001 89.235 32.1276 90.6913 31.9196C92.1476 31.7115 94.2281 26.7184 94.2281 26.7184C94.2281 26.7184 94.8522 22.9736 91.7315 22.3494C90.0112 22.0054 88.9863 21.9774 88.4129 22.0216C88.1839 22.0407 87.9534 22.0134 87.7352 21.9414C87.517 21.8695 87.3154 21.7543 87.1426 21.6029C86.7714 21.2459 86.4388 20.8507 86.1505 20.4239C86.0744 20.3155 86.0254 20.1905 86.0076 20.0593C85.9897 19.9281 86.0035 19.7945 86.0479 19.6697C86.325 18.9134 86.5556 18.1408 86.7384 17.3563C86.9464 16.3161 88.6108 15.4839 88.6108 15.4839C88.6108 15.4839 89.0269 12.5712 89.6511 13.4034C89.9709 13.8412 90.3183 14.2581 90.6913 14.6517Z"
     fill="#fff"
     id="path39" />
  <path
     d="M90.6913 14.6517C90.6913 14.6517 94.8522 16.108 98.5971 15.2758C98.5971 15.2758 105.879 14.2356 106.503 14.0275C107.127 13.8195 114.201 13.4034 117.945 14.0275C117.945 14.0275 128.348 5.91369 122.523 2.37689C122.523 2.37689 120.026 3.62517 119.402 2.79298C119.168 2.48091 119.285 2.08107 119.522 1.70317C119.791 1.29255 120.155 0.953492 120.584 0.715303C121.013 0.477114 121.494 0.346958 121.984 0.336097C124.158 0.254703 128.054 1.03591 126.286 8.14394C125.782 10.1045 124.853 11.9304 123.566 13.4926C122.618 14.6606 121.638 16.277 122.106 17.5643C122.939 19.8529 123.147 23.3897 123.147 23.3897L126.059 27.7586C126.059 27.7586 127.724 33.1679 127.724 33.3759C127.724 33.584 125.46 34.0253 125.019 33.584C124.603 33.1679 125.643 32.3357 125.643 32.3357C125.643 32.3357 124.811 30.6713 123.355 30.2552C121.898 29.8391 117.945 28.3828 117.321 27.7586C116.697 27.1345 103.382 23.3897 99.6373 26.9265C97.5358 28.9341 95.3124 30.8101 92.9798 32.5437C92.9798 32.5437 91.9396 34.0001 90.6913 34.0001C89.443 34.0001 89.235 32.1276 90.6913 31.9196C92.1476 31.7115 94.2281 26.7184 94.2281 26.7184C94.2281 26.7184 94.8522 22.9736 91.7315 22.3494C90.0112 22.0054 88.9863 21.9774 88.4129 22.0216C88.1839 22.0407 87.9534 22.0134 87.7352 21.9414C87.517 21.8695 87.3154 21.7543 87.1426 21.6029C86.7714 21.2459 86.4388 20.8507 86.1505 20.4239C86.0744 20.3155 86.0254 20.1905 86.0076 20.0593C85.9897 19.9281 86.0035 19.7945 86.0479 19.6697C86.325 18.9134 86.5556 18.1408 86.7384 17.3563C86.9464 16.3161 88.6108 15.4839 88.6108 15.4839C88.6108 15.4839 89.0269 12.5712 89.6511 13.4034C89.9709 13.8412 90.3183 14.2581 90.6913 14.6517Z"
     fill="#fff"
     id="path41" />
  <text
     xml:space="preserve"
     style="font-style:normal;font-weight:normal;font-size:22.5164px;line-height:1.25;font-family:sans-serif;fill:#fff;fill-opacity:1;stroke:none;stroke-width:1.12582"
     x="1.0806704"
     y="31.888998"
     id="text1704"><tspan
       sodipodi:role="line"
       id="tspan1702"
       x="1.0806704"
       y="31.888998"
       style="font-style:normal;font-variant:normal;font-weight:normal;font-stretch:normal;font-size:22.5164px;font-family:Courgette;-inkscape-font-specification:Courgette;fill:#fff;fill-opacity:1;stroke-width:1.12582">CatWiki</tspan></text>
</svg>
